# xmcd
#
# Track frame offsets: 
#        150
#        8097
#        27351
#        59715
#        113188
#        131711
#        151497
#        191798
#
# Disc length: 2818 seconds
#
# Revision: 0
# Processed by: cddbd v1.5.2PL0 Copyright (c) Steve Scherf et al.
# Submitted via: ExactAudioCopy v0.99pb4
#
DISCID=6e0b0008
DTITLE=Don Sugarcane Harris - Pure Food And Drug Act
DYEAR=1972
DGENRE=Blues
TTITLE0=Pure Food and Drug Act - Introduction Jim's Message
TTITLE1=Pure Food and Drug Act - My Soul's on Fire
TTITLE2=Pure Food and Drug Act - 'Till the Day I Die
TTITLE3=Pure Food and Drug Act - Eleanor Rigby
TTITLE4=Pure Food and Drug Act - A Little Soul Food
TTITLE5=Pure Food and Drug Act - Do It Yourself
TTITLE6=Pure Food and Drug Act - Where's My Sunshine
TTITLE7=Pure Food and Drug Act - What Comes Around Goes Around
EXTD=
EXTT0=
EXTT1=
EXTT2=
EXTT3=
EXTT4=
EXTT5=
EXTT6=
EXTT7=
PLAYORDER=
